<svg width="141" height="141" viewBox="0 0 141 141" fill="none" xmlns="http://www.w3.org/2000/svg">
<g clipPath="url(#clip0_87_179)">
<path d="M59.625 39.875C60.542 40.292 61.625 40.583 62.875 40.75C64.208 40.917 65.458 41 66.625 41C68.042 41 69.5 40.958 71 40.875C72.5 40.792 74.333 40.625 76.5 40.375C78.25 40.208 80.417 40 83 39.75C85.583 39.5 88.458 39.167 91.625 38.75C90.458 39.333 89.458 39.958 88.625 40.625C87.792 41.292 87.083 41.958 86.5 42.625C85.833 43.375 85.292 44.125 84.875 44.875C84.292 45.875 83.5 47.625 82.5 50.125C81.583 52.542 80.625 55.25 79.625 58.25C78.708 61.25 77.875 64.292 77.125 67.375C76.458 70.458 76.083 73.083 76 75.25C75.917 77.083 75.833 79.167 75.75 81.5C75.667 83.5 75.583 85.958 75.5 88.875C75.417 91.792 75.333 95.125 75.25 98.875C81.25 94.542 85.875 91.083 89.125 88.5C92.375 85.833 94.75 83.792 96.25 82.375C98 80.792 99.042 79.667 99.375 79C99.292 78.5 99.083 77.958 98.75 77.375C98.333 76.875 97.75 76.292 97 75.625C96.25 74.958 95.125 74.208 93.625 73.375C95.792 73.625 97.667 73.792 99.25 73.875C100.917 73.958 102.333 74.042 103.5 74.125C104.833 74.208 106 74.208 107 74.125C108.083 74.125 109.417 74.083 111 74C113.75 73.917 118 73.792 123.75 73.625C118.167 76.542 113.75 79.042 110.5 81.125C108.667 82.292 107.042 83.375 105.625 84.375C104.208 85.458 102.75 86.583 101.25 87.75C99.917 88.75 98.375 89.917 96.625 91.25C94.958 92.583 93.292 94 91.625 95.5C94.542 100.25 97.083 104.167 99.25 107.25C101.5 110.333 103.375 112.833 104.875 114.75C106.625 117 108.167 118.792 109.5 120.125C110.833 121.375 112.583 122.792 114.75 124.375C116.583 125.792 118.958 127.458 121.875 129.375C124.875 131.208 128.5 133.333 132.75 135.75C130.583 135.333 128.5 135.042 126.5 134.875C124.5 134.792 122.792 134.792 121.375 134.875C119.625 134.958 118.042 135.125 116.625 135.375C115.125 135.708 113.458 136.125 111.625 136.625C110.042 137.042 108.167 137.583 106 138.25C103.917 139 101.625 139.958 99.125 141.125C100.708 139.958 101.875 138.833 102.625 137.75C103.458 136.75 104.042 135.917 104.375 135.25C104.708 134.417 104.833 133.708 104.75 133.125C104.333 132.292 103.375 130.583 101.875 128C100.458 125.833 98.375 122.667 95.625 118.5C92.875 114.333 88.958 108.667 83.875 101.5C83.625 101.583 83.208 101.833 82.625 102.25C82.125 102.667 81.375 103.25 80.375 104C79.375 104.667 78.042 105.667 76.375 107L79.75 128.875C79 129.208 78.167 129.5 77.25 129.75C76.417 130 75.625 130.208 74.875 130.375C73.958 130.625 73.042 130.792 72.125 130.875C71.208 130.958 70.125 131.125 68.875 131.375C67.792 131.542 66.5 131.75 65 132C63.5 132.333 61.792 132.708 59.875 133.125C60.958 132.375 61.833 131.5 62.5 130.5C63.167 129.583 63.708 128.708 64.125 127.875C64.542 126.958 64.917 126 65.25 125C65.417 124.167 65.583 122 65.75 118.5C66 115 66.208 110.833 66.375 106C66.542 101.083 66.667 95.833 66.75 90.25C66.917 84.667 67 79.417 67 74.5C67 69.5 66.958 65.167 66.875 61.5C66.792 57.75 66.625 55.333 66.375 54.25C65.958 52.917 65.458 51.5 64.875 50C64.375 48.667 63.667 47.167 62.75 45.5C61.917 43.75 60.875 41.875 59.625 39.875Z" fill="#120707"/>
<path d="M68.105 55.338C68.105 55.338 62.553 52.705 58.729 51.943C55.001 51.2 49.001 51.455 49.001 51.455C49.001 51.455 51.375 46.776 54.005 44.883C57.18 42.597 65.376 41 65.376 41C65.542 42.238 60.978 44.326 59.615 46.259L56.431 48.766C56.431 48.766 61.777 49.029 65.376 50.11" stroke="black"/>
<path d="M37.193 56.206C39.222 54.632 46.578 54 46.578 54C46.578 54 41.117 55.502 38.404 57.676C36.919 58.866 35.073 61.206 35.073 61.206C35.073 61.206 32.453 63.153 31.592 63.706L20.844 70.176L27.505 74.588L20.844 79.147L25.234 88.265L35.073 92.088L43.702 88.265L45.518 74.588L49 79.147C45.646 86.878 44.444 91.194 43.702 98.853C43.702 98.853 37.019 99.891 32.954 101.941C29.094 103.888 23.417 109 23.417 109C23.417 109 22.243 105.379 20.844 103.412C19.347 101.306 16 98.853 16 98.853L20.844 90.618L16 79.147L18.422 76.647L16 68.877L35.073 58.853C35.073 58.853 36.139 57.023 37.193 56.206Z" stroke="#0A0707"/>
<g filter="url(#filter0_i_87_179)">
<path d="M37.4919 66.9641L38.65 65.0801L36.4579 66.7801L35.642 68.9131L35.588 69.0541L35.4659 69.1421L34.0659 70.1401L38.0809 69.4571L43.0469 67.7251H37.918H37.0229L37.4919 66.9641Z" stroke="#140303"/>
</g>
<path d="M52 140C52 140 53.695 133.674 55.332 129.841C57.82 124.017 60.179 121.25 63.591 115.947C65.726 112.629 67.846 111.097 68.952 107.282C70.795 100.923 70.144 94.959 67.503 88.906C65.069 83.327 56.781 78 56.781 78" stroke="black"/>
<path d="M51.243 140L46.021 130.786C46.021 130.786 43.555 127.296 42.395 124.822C41.499 122.913 40.9559 121.821 40.5089 119.752C39.8459 116.682 39.8149 114.762 40.5089 111.7C41.4539 107.527 46.021 102.306 46.021 102.306C46.021 102.306 44.478 107.986 44.57 111.7C44.65 114.897 44.965 116.744 46.021 119.752C46.959 122.423 49.357 126.164 49.357 126.164C49.357 126.164 53.466 121.373 56.32 117.366C58.417 114.421 60.478 112.291 61.977 108.419C64.185 102.717 64.53 98.725 63.283 92.762C62.081 87.018 56.32 78 56.32 78" stroke="#0A0707"/>
<path d="M53 59.032C53 59.032 58.157 56.71 59.224 59.032C59.745 60.165 59.745 61.129 59.224 62.263C58.384 64.089 54.592 63.955 54.592 63.955C54.592 63.955 60.571 66.129 61.974 68.615C62.961 70.365 64 76 64 76" stroke="black"/>
<path d="M53 58.6668C53 58.6668 56.592 54.5378 59.425 55.0428C61.047 55.3318 62.286 55.7698 63.029 57.2488C63.664 58.5118 63.453 59.5228 63.029 60.8728C62.656 62.0608 61.305 63.5518 61.305 63.5518C61.305 63.5518 64.354 65.1918 64.753 67.1758C65.309 69.9508 64.753 75.9998 64.753 75.9998" stroke="black"/>
<path d="M85.98 22.1695C93.266 24.0975 99.459 8.35547 99.459 8.35547L96.514 34.1495C96.514 34.1495 80.574 32.7175 70.702 34.2455C60.061 35.8935 44.185 42.5575 44.185 42.5575L30.822 22.4225C30.822 22.4225 41.126 30.3855 45.103 26.2055C47.656 23.5215 46.637 16.8435 46.637 16.8435C46.637 16.8435 53.624 26.5235 58.432 24.0635C62.098 22.1875 62.434 14.3045 62.434 14.3045C62.434 14.3045 68.029 23.3235 72.748 21.7635C76.864 20.4025 77.738 11.8455 77.738 11.8455C77.738 11.8455 80.993 20.8495 85.98 22.1695Z" stroke="black"/>
<path d="M99.5 8C100.328 8 101 7.32843 101 6.5C101 5.67157 100.328 5 99.5 5C98.6716 5 98 5.67157 98 6.5C98 7.32843 98.6716 8 99.5 8Z" fill="#1B1010"/>
<path d="M30.5 23C31.3284 23 32 22.3284 32 21.5C32 20.6716 31.3284 20 30.5 20C29.6716 20 29 20.6716 29 21.5C29 22.3284 29.6716 23 30.5 23Z" fill="#1B1010"/>
</g>
<defs>
<filter id="filter0_i_87_179" x="33.7756" y="64.6855" width="9.43591" height="9.94727" filterUnits="userSpaceOnUse" colorInterpolationFilters="sRGB">
<feFlood floodOpacity="0" result="BackgroundImageFix"/>
<feBlend mode="normal" in="SourceGraphic" in2="BackgroundImageFix" result="shape"/>
<feColorMatrix in="SourceAlpha" type="matrix" values="0 0 0 0 0 0 0 0 0 0 0 0 0 0 0 0 0 0 127 0" result="hardAlpha"/>
<feOffset dy="4"/>
<feGaussianBlur stdDeviation="2"/>
<feComposite in2="hardAlpha" operator="arithmetic" k2="-1" k3="1"/>
<feColorMatrix type="matrix" values="0 0 0 0 0 0 0 0 0 0 0 0 0 0 0 0 0 0 0.25 0"/>
<feBlend mode="normal" in2="shape" result="effect1_innerShadow_87_179"/>
</filter>
<clipPath id="clip0_87_179">
<rect width="141" height="141" fill="white"/>
</clipPath>
</defs>
</svg>
